<svg xmlns="http://www.w3.org/2000/svg" xmlns:xlink="http://www.w3.org/1999/xlink" width="256" height="256"><defs><clipPath id="A"><path d="M170.55 715.376c5.804-10.294-.31-18.75-14.236-18.75-11.14 0-18.877 9.048-18.877 14.62 5.257 12.383 28.696 11.966 33.113 4.133z" opacity="1" fill="#ecf7f3" fill-opacity="1" stroke="none" paint-order="stroke fill markers"/></clipPath><clipPath id="B"><path d="M85.45 715.376c-5.804-10.294.31-22.49 14.236-22.49 11.14 0 18.877 12.788 18.877 18.36-5.257 12.383-26.85 15.242-33.113 4.133z" opacity="1" fill="#ecf7f3" fill-opacity="1" stroke="none" paint-order="stroke fill markers"/></clipPath><clipPath id="C"><path d="M128 157.685c27.952-4 56.33-12.184 77.828-21.978-6.994 23.762-11.52 49.3-13.6 73.747-11.892 6.483-25.72 11.877-40.147 15.878-3.255 1.478-8.388 3.157-10.484 3.554-1.47.278-8.856 1.14-13.596 1.347L126 228v-68z" opacity="1" fill="#957e61" fill-opacity="1" fill-rule="nonzero" stroke="none" paint-order="stroke fill markers"/></clipPath><path id="D" d="M162.077 210.5l-1.436 2.965.618-.21v2.192l1.635-.553v-2.192l.618-.21z"/></defs><circle cx="128" cy="128" r="120" fill="#649bf4" stroke="#4d86d9" stroke-width="4" stroke-linejoin="round" paint-order="fill markers stroke"/><path d="M92 168l-41.828-32.293c26.085-7.102 51.885-13.683 77.828-16.18" fill="#897356" paint-order="stroke fill markers"/><path d="M176 168l29.828-32.293c-26.085-7.102-51.885-13.683-77.828-16.18" fill="#957e61" paint-order="stroke fill markers"/><g fill="#fff5e8"><path d="M126 126.562l47.857-5.54c16.693-6 12.847 27.833-3.78 25.654" paint-order="stroke fill markers"/><path d="M128 126.562l-47.857-5.54c-16.693-6-12.847 27.833 3.78 25.654" paint-order="stroke fill markers"/></g><path d="M128 57.078c-33.536 0-51.828 21.244-51.828 57.828S91.9 181.034 134 181.977c33.062-8.86 46.67-26.362 42.078-37.3 2.395-9.268 3.75-17.558 3.75-29.772 0-36.584-18.292-57.828-51.828-57.828z" fill="#fbdbcf" paint-order="stroke fill markers"/><path d="M132 142.648l-1.84 8.533 1.84 1.024 4.258-1.024z" fill="#ecb59d" paint-order="stroke fill markers"/><path d="M122.854 108.906c-6.334-4.62-26.245-11.475-33.812-4.46 7.424-18.028 32.608-5.658 33.812 4.46zm18.292 6c7.333-.15 23.332-2.595 33.056-6.728-12.17-3.476-30.034 1.564-33.056 6.728zm-51.696 29.97c-4.334-2.732-8.652-10.615-8.988-18.454 5.276-4.05 10.862-9.12 22.236-9.12 12.772 0 19.917 12.542 21.775 20.28l-1.9 3.16c-22.283-5.57-33.113-6.22-33.113 4.133z" paint-order="stroke fill markers" fill="#756159"/><g clip-path="url(#B)" transform="translate(4 -570.5)"><path d="M80.785 690.896h38.8v33.126h-38.8z" fill="#ecf7f3" paint-order="stroke fill markers"/><ellipse ry="13.719" rx="12.195" cy="703.222" cx="101.61" fill="#1c52db" paint-order="stroke fill markers"/><ellipse cx="101.61" cy="703.222" rx="9.146" ry="10.67" fill="#5eb0f6" paint-order="stroke fill markers"/></g><path d="M172.848 144.876c4.124-2.732 8.232-10.615 8.55-18.454-5.02-4.05-8.505-5.913-19.326-5.913-12.15 0-20.78 9.336-22.548 17.074l1.818 3.16c21.2-5.57 31.505-6.22 31.505 4.133z" fill="#756159" paint-order="stroke fill markers"/><g clip-path="url(#A)" transform="matrix(.95144 0 0 1 10.581168 -570.49999)"><path d="M135.39 690.896h38.8v33.126h-38.8z" fill="#ecf7f3" paint-order="stroke fill markers"/><g transform="scale(-1 1)"><ellipse cx="-150.39" cy="703.222" rx="12.195" ry="13.719" fill="#1c52db" paint-order="stroke fill markers"/><ellipse ry="10.67" rx="9.146" cy="703.222" cx="-150.39" fill="#5eb0f6" paint-order="stroke fill markers"/></g></g><g clip-path="url(#C)"><path d="M124 119.528h96.638V242.4H124z" fill="#957e61" paint-order="stroke fill markers"/><g fill="#625446"><path d="M146.45 213.127c-.364.123-.66.56-.66.977v11.1c0 .416.295.654.66.53l9.687-3.28c.364-.123.66-.56.66-.977v-11.1c0-.416-.295-.654-.66-.53zm.66 1.285l8.37-2.833v9.582l-8.37 2.833zm11.878-5.53c-.364.123-.66.56-.66.977v11.1c0 .416.295.654.66.53l9.7-3.28c.364-.123.66-.56.66-.977v-11.1c0-.416-.295-.654-.66-.53zm.66 1.285l8.372-2.834v9.582l-8.372 2.834z" dominant-baseline="auto" paint-order="stroke fill markers"/><use xlink:href="#D" paint-order="stroke fill markers"/><path d="M165.6 209.3l-1.436 2.965.618-.2v2.192l1.635-.553v-2.192l.618-.2zm-4.96 7.176l6.383-2.16v1.72l-6.383 2.16z" paint-order="stroke fill markers"/><path d="M154.785 218.07l-.905 2.1c-.177.416-.507.715-.84.802l-.724.245v.83l-.905-1.56.905-2.17v.83l1.02-.346-.804-1.324 1.568-1.567.652 1.072c.188.255.214.674.033 1.087m-4.566-3.577l1.8-.613c.355-.12.663.012.81.302l.362.6.626-.626-.956 2.15-1.865.668.626-.626-.51-.843-.8 1.866-1.57-.504.652-1.514c.148-.394.456-.74.815-.86m-1.506 7.43l-.905-1.488c-.177-.292-.152-.724.033-1.105l.362-.84-.626-.202 1.86-.597.96 1.507-.626-.202-.51 1.184 1.608-.544v2.072l-1.304.44c-.337.143-.67.065-.85-.226z"/></g><path d="M152.133 225.225c-6.498-3.606-16.885-8.772-24.133-10.58-1.727 2.03-6.133-.296 0 2.137 6.09 2.415 14.707 8.602 24.133 11.22" fill="#3d2e13" fill-opacity=".137" paint-order="stroke fill markers"/></g><g clip-path="url(#C)" transform="matrix(-1 0 0 1 256 0)"><path d="M128 119.528h92.638V242.4H128z" fill="#b49d74" paint-order="stroke fill markers"/><path d="M175.856 220.95l1.923-11.54-24.15 7.266-1.496 11.327" fill="#efe2cb" paint-order="stroke fill markers"/><path d="M152.133 225.225c-8.442-1.175-18.345-6.946-24.133-10.58v2.137c4.15 5.13 12.378 11.86 24.133 11.22" fill="#3d2e13" fill-opacity=".137" paint-order="stroke fill markers"/></g><path d="M128 157.685c-27.952-4-56.33-12.184-77.828-21.978-5.236 2.573-11.13 6.556-18.22 10.5-4.652 1.38-11.97 2.545-18.274 5.274 6.426 5.05 17.882 13.052 26.03 23.14 16.358 7.578 35.177 15.065 49.198 20.673 7.908-6.412 25.86-32.485 39.093-37.62z" fill="#c7b183" paint-order="stroke fill markers"/><path d="M31.952 146.218c3.632 9.55 6.005 19.175 7.757 28.414.79-1.768 3.462-15.125 2.928-17.797s-6.943-6.702-10.685-10.617z" fill="#3d2e13" fill-opacity=".137" paint-order="stroke fill markers"/><path d="M167.093 195.304c-9.404-9.83-27.142-29.493-39.093-37.62 27.952-4 56.33-12.184 77.828-21.978 13.23 6.263 24.947 15.05 36.494 24.12-20.823 13.218-48.4 25.624-75.23 35.477z" fill="#b49d74" paint-order="stroke fill markers"/></svg>