<?xml version="1.0" encoding="UTF-8" standalone="no"?>
<svg
   xmlns:dc="http://purl.org/dc/elements/1.1/"
   xmlns:cc="http://creativecommons.org/ns#"
   xmlns:rdf="http://www.w3.org/1999/02/22-rdf-syntax-ns#"
   xmlns:svg="http://www.w3.org/2000/svg"
   xmlns="http://www.w3.org/2000/svg"
   xmlns:xlink="http://www.w3.org/1999/xlink"
   xmlns:sodipodi="http://sodipodi.sourceforge.net/DTD/sodipodi-0.dtd"
   xmlns:inkscape="http://www.inkscape.org/namespaces/inkscape"
   width="256"
   height="256"
   version="1.1"
   id="svg82"
   sodipodi:docname="jackbox.svg"
   inkscape:export-filename="D:\Downloads\Godot\salty\images\jackbox.png"
   inkscape:export-xdpi="288"
   inkscape:export-ydpi="288"
   inkscape:version="0.92.4 (5da689c313, 2019-01-14)">
  <metadata
     id="metadata86">
    <rdf:RDF>
      <cc:Work
         rdf:about="">
        <dc:format>image/svg+xml</dc:format>
        <dc:type
           rdf:resource="http://purl.org/dc/dcmitype/StillImage" />
      </cc:Work>
    </rdf:RDF>
  </metadata>
  <sodipodi:namedview
     pagecolor="#ffffff"
     bordercolor="#666666"
     borderopacity="1"
     objecttolerance="10"
     gridtolerance="10"
     guidetolerance="10"
     inkscape:pageopacity="0"
     inkscape:pageshadow="2"
     inkscape:window-width="640"
     inkscape:window-height="480"
     id="namedview84"
     showgrid="false"
     inkscape:zoom="2.2925728"
     inkscape:cx="174.20405"
     inkscape:cy="136.38842"
     inkscape:current-layer="svg82" />
  <defs
     id="defs12">
    <clipPath
       id="A">
      <path
         d="M170.55 715.376c5.804-10.294-.31-18.75-14.236-18.75-11.14 0-18.877 9.048-18.877 14.62 5.257 12.383 28.696 11.966 33.113 4.133z"
         opacity="1"
         fill="#ecf7f3"
         fill-opacity="1"
         stroke="none"
         paint-order="stroke fill markers"
         id="path2" />
    </clipPath>
    <clipPath
       id="B">
      <path
         d="M85.45 715.376c-5.804-10.294.31-22.49 14.236-22.49 11.14 0 18.877 12.788 18.877 18.36-5.257 12.383-26.85 15.242-33.113 4.133z"
         opacity="1"
         fill="#ecf7f3"
         fill-opacity="1"
         stroke="none"
         paint-order="stroke fill markers"
         id="path5" />
    </clipPath>
    <clipPath
       id="C">
      <path
         d="M128 157.685c27.952-4 56.33-12.184 77.828-21.978-6.994 23.762-11.52 49.3-13.6 73.747-11.892 6.483-25.72 11.877-40.147 15.878-3.255 1.478-8.388 3.157-10.484 3.554-1.47.278-8.856 1.14-13.596 1.347L126 228v-68z"
         opacity="1"
         fill="#957e61"
         fill-opacity="1"
         fill-rule="nonzero"
         stroke="none"
         paint-order="stroke fill markers"
         id="path8" />
    </clipPath>
    <path
       id="D"
       d="M162.077 210.5l-1.436 2.965.618-.21v2.192l1.635-.553v-2.192l.618-.21z" />
  </defs>
  <circle
     cx="128"
     cy="128"
     r="120"
     id="circle14"
     style="fill:#649bf4;stroke:#4d86d9;stroke-width:4;stroke-linejoin:round;paint-order:fill markers stroke" />
  <path
     d="M 92,164 50.172,131.707 c 26.085,-7.102 51.885,-13.683 77.828,-16.18"
     id="path16"
     inkscape:connector-curvature="0"
     style="fill:#897356;paint-order:stroke fill markers" />
  <path
     d="m 176,164 29.828,-32.293 C 179.743,124.605 153.943,118.024 128,115.527"
     id="path18"
     inkscape:connector-curvature="0"
     style="fill:#957e61;paint-order:stroke fill markers" />
  <g
     id="g24"
     transform="translate(0,-4)"
     style="fill:#fff5e8">
    <path
       d="m 126,126.562 47.857,-5.54 c 16.693,-6 12.847,27.833 -3.78,25.654"
       id="path20"
       inkscape:connector-curvature="0"
       style="paint-order:stroke fill markers" />
    <path
       d="m 128,126.562 -47.857,-5.54 c -16.693,-6 -12.847,27.833 3.78,25.654"
       id="path22"
       inkscape:connector-curvature="0"
       style="paint-order:stroke fill markers" />
  </g>
  <path
     d="m 128,53.078 c -33.536,0 -51.828,21.244 -51.828,57.828 0,36.584 15.728,66.128 57.828,67.071 33.062,-8.86 46.67,-26.362 42.078,-37.3 2.395,-9.268 3.75,-17.558 3.75,-29.772 0,-36.584 -18.292,-57.828 -51.828,-57.828 z"
     id="path26"
     inkscape:connector-curvature="0"
     style="fill:#fbdbcf;paint-order:stroke fill markers" />
  <path
     d="m 132,138.648 -1.84,8.533 1.84,1.024 4.258,-1.024 z"
     id="path28"
     inkscape:connector-curvature="0"
     style="fill:#ecb59d;paint-order:stroke fill markers" />
  <path
     d="m 122.854,104.906 c -6.334,-4.62 -26.245,-11.475 -33.812,-4.46 7.424,-18.028 32.608,-5.658 33.812,4.46 z m 18.292,6 c 7.333,-0.15 23.332,-2.595 33.056,-6.728 -12.17,-3.476 -30.034,1.564 -33.056,6.728 z m -51.696,29.97 c -4.334,-2.732 -8.652,-10.615 -8.988,-18.454 5.276,-4.05 10.862,-9.12 22.236,-9.12 12.772,0 19.917,12.542 21.775,20.28 l -1.9,3.16 c -22.283,-5.57 -33.113,-6.22 -33.113,4.133 z"
     id="path30"
     inkscape:connector-curvature="0"
     style="fill:#756159;paint-order:stroke fill markers" />
  <g
     clip-path="url(#B)"
     transform="translate(4,-574.5)"
     id="g38">
    <path
       d="m 80.785,690.896 h 38.8 v 33.126 h -38.8 z"
       id="path32"
       inkscape:connector-curvature="0"
       style="fill:#ecf7f3;paint-order:stroke fill markers" />
    <ellipse
       ry="13.719"
       rx="12.195"
       cy="703.22198"
       cx="101.61"
       id="ellipse34"
       style="fill:#1c52db;paint-order:stroke fill markers" />
    <ellipse
       cx="101.61"
       cy="703.22198"
       rx="9.1459999"
       ry="10.67"
       id="ellipse36"
       style="fill:#5eb0f6;paint-order:stroke fill markers" />
  </g>
  <path
     d="m 172.848,140.876 c 4.124,-2.732 8.232,-10.615 8.55,-18.454 -5.02,-4.05 -8.505,-5.913 -19.326,-5.913 -12.15,0 -20.78,9.336 -22.548,17.074 l 1.818,3.16 c 21.2,-5.57 31.505,-6.22 31.505,4.133 z"
     id="path40"
     inkscape:connector-curvature="0"
     style="fill:#756159;paint-order:stroke fill markers" />
  <g
     clip-path="url(#A)"
     transform="matrix(0.95144,0,0,1,10.581168,-574.49999)"
     id="g50">
    <path
       d="m 135.39,690.896 h 38.8 v 33.126 h -38.8 z"
       id="path42"
       inkscape:connector-curvature="0"
       style="fill:#ecf7f3;paint-order:stroke fill markers" />
    <g
       transform="scale(-1,1)"
       id="g48">
      <ellipse
         cx="-150.39"
         cy="703.22198"
         rx="12.195"
         ry="13.719"
         id="ellipse44"
         style="fill:#1c52db;paint-order:stroke fill markers" />
      <ellipse
         ry="10.67"
         rx="9.1459999"
         cy="703.22198"
         cx="-150.39"
         id="ellipse46"
         style="fill:#5eb0f6;paint-order:stroke fill markers" />
    </g>
  </g>
  <g
     clip-path="url(#C)"
     id="g66"
     transform="translate(0,-4)">
    <path
       d="m 124,119.528 h 96.638 V 242.4 H 124 Z"
       id="path52"
       inkscape:connector-curvature="0"
       style="fill:#957e61;paint-order:stroke fill markers" />
    <g
       id="g62"
       style="fill:#625446">
      <path
         d="m 146.45,213.127 c -0.364,0.123 -0.66,0.56 -0.66,0.977 v 11.1 c 0,0.416 0.295,0.654 0.66,0.53 l 9.687,-3.28 c 0.364,-0.123 0.66,-0.56 0.66,-0.977 v -11.1 c 0,-0.416 -0.295,-0.654 -0.66,-0.53 z m 0.66,1.285 8.37,-2.833 v 9.582 l -8.37,2.833 z m 11.878,-5.53 c -0.364,0.123 -0.66,0.56 -0.66,0.977 v 11.1 c 0,0.416 0.295,0.654 0.66,0.53 l 9.7,-3.28 c 0.364,-0.123 0.66,-0.56 0.66,-0.977 v -11.1 c 0,-0.416 -0.295,-0.654 -0.66,-0.53 z m 0.66,1.285 8.372,-2.834 v 9.582 l -8.372,2.834 z"
         dominant-baseline="auto"
         id="path54"
         inkscape:connector-curvature="0"
         style="dominant-baseline:auto;paint-order:stroke fill markers" />
      <use
         xlink:href="#D"
         id="use56"
         style="paint-order:stroke fill markers"
         x="0"
         y="0"
         width="100%"
         height="100%" />
      <path
         d="m 165.6,209.3 -1.436,2.965 0.618,-0.2 v 2.192 l 1.635,-0.553 v -2.192 l 0.618,-0.2 z m -4.96,7.176 6.383,-2.16 v 1.72 l -6.383,2.16 z"
         id="path58"
         inkscape:connector-curvature="0"
         style="paint-order:stroke fill markers" />
      <path
         d="m 154.785,218.07 -0.905,2.1 c -0.177,0.416 -0.507,0.715 -0.84,0.802 l -0.724,0.245 v 0.83 l -0.905,-1.56 0.905,-2.17 v 0.83 l 1.02,-0.346 -0.804,-1.324 1.568,-1.567 0.652,1.072 c 0.188,0.255 0.214,0.674 0.033,1.087 m -4.566,-3.577 1.8,-0.613 c 0.355,-0.12 0.663,0.012 0.81,0.302 l 0.362,0.6 0.626,-0.626 -0.956,2.15 -1.865,0.668 0.626,-0.626 -0.51,-0.843 -0.8,1.866 -1.57,-0.504 0.652,-1.514 c 0.148,-0.394 0.456,-0.74 0.815,-0.86 m -1.506,7.43 -0.905,-1.488 c -0.177,-0.292 -0.152,-0.724 0.033,-1.105 l 0.362,-0.84 -0.626,-0.202 1.86,-0.597 0.96,1.507 -0.626,-0.202 -0.51,1.184 1.608,-0.544 v 2.072 l -1.304,0.44 c -0.337,0.143 -0.67,0.065 -0.85,-0.226 z"
         id="path60"
         inkscape:connector-curvature="0" />
    </g>
    <path
       d="m 152.133,225.225 c -6.498,-3.606 -16.885,-8.772 -24.133,-10.58 -1.727,2.03 -6.133,-0.296 0,2.137 6.09,2.415 14.707,8.602 24.133,11.22"
       id="path64"
       inkscape:connector-curvature="0"
       style="fill:#3d2e13;fill-opacity:0.13699999;paint-order:stroke fill markers" />
  </g>
  <g
     clip-path="url(#C)"
     transform="matrix(-1,0,0,1,256,-4)"
     id="g74">
    <path
       d="m 128,119.528 h 92.638 V 242.4 H 128 Z"
       id="path68"
       inkscape:connector-curvature="0"
       style="fill:#b49d74;paint-order:stroke fill markers" />
    <path
       d="m 175.856,220.95 1.923,-11.54 -24.15,7.266 -1.496,11.327"
       id="path70"
       inkscape:connector-curvature="0"
       style="fill:#efe2cb;paint-order:stroke fill markers" />
    <path
       d="M 152.133,225.225 C 143.691,224.05 133.788,218.279 128,214.645 v 2.137 c 4.15,5.13 12.378,11.86 24.133,11.22"
       id="path72"
       inkscape:connector-curvature="0"
       style="fill:#3d2e13;fill-opacity:0.13699999;paint-order:stroke fill markers" />
  </g>
  <path
     d="m 128,153.685 c -27.952,-4 -56.33,-12.184 -77.828,-21.978 -5.236,2.573 -11.13,6.556 -18.22,10.5 -4.652,1.38 -11.97,2.545 -18.274,5.274 6.426,5.05 17.882,13.052 26.03,23.14 16.358,7.578 35.177,15.065 49.198,20.673 7.908,-6.412 25.86,-32.485 39.093,-37.62 z"
     id="path76"
     inkscape:connector-curvature="0"
     style="fill:#c7b183;paint-order:stroke fill markers" />
  <path
     d="m 31.952,142.218 c 3.632,9.55 6.005,19.175 7.757,28.414 0.79,-1.768 3.462,-15.125 2.928,-17.797 -0.534,-2.672 -6.943,-6.702 -10.685,-10.617 z"
     id="path78"
     inkscape:connector-curvature="0"
     style="fill:#3d2e13;fill-opacity:0.13699999;paint-order:stroke fill markers" />
  <path
     d="m 167.093,191.304 c -9.404,-9.83 -27.142,-29.493 -39.093,-37.62 27.952,-4 56.33,-12.184 77.828,-21.978 13.23,6.263 24.947,15.05 36.494,24.12 -20.823,13.218 -48.4,25.624 -75.23,35.477 z"
     id="path80"
     inkscape:connector-curvature="0"
     style="fill:#b49d74;paint-order:stroke fill markers" />
  <text
     xml:space="preserve"
     style="font-style:normal;font-variant:normal;font-weight:bold;font-stretch:normal;font-size:12px;line-height:1.39999998;font-family:'Atkinson Hyperlegible';-inkscape-font-specification:'Atkinson Hyperlegible Bold';font-variant-ligatures:normal;font-variant-position:normal;font-variant-caps:normal;font-variant-numeric:normal;font-variant-alternates:normal;font-feature-settings:normal;text-indent:0;text-align:center;text-decoration:none;text-decoration-line:none;text-decoration-style:solid;text-decoration-color:#000000;letter-spacing:normal;word-spacing:normal;text-transform:none;writing-mode:lr-tb;direction:ltr;text-orientation:mixed;dominant-baseline:auto;baseline-shift:baseline;text-anchor:middle;white-space:normal;shape-padding:0;opacity:1;vector-effect:none;fill:#ffffff;fill-opacity:1;fill-rule:nonzero;stroke:#4d86d9;stroke-width:2;stroke-linecap:butt;stroke-linejoin:round;stroke-miterlimit:4;stroke-dasharray:none;stroke-dashoffset:0;stroke-opacity:1;paint-order:stroke fill markers"
     x="127.89322"
     y="32.563442"
     id="text895"><tspan
       sodipodi:role="line"
       id="tspan893"
       x="127.89322"
       y="32.563442">based on the Jackbox Games game series</tspan></text>
  <text
     id="text899"
     y="49.393944"
     x="127.89322"
     style="font-style:normal;font-variant:normal;font-weight:bold;font-stretch:normal;font-size:16px;line-height:1.39999998;font-family:'Atkinson Hyperlegible';-inkscape-font-specification:'Atkinson Hyperlegible Bold';font-variant-ligatures:normal;font-variant-position:normal;font-variant-caps:normal;font-variant-numeric:normal;font-variant-alternates:normal;font-feature-settings:normal;text-indent:0;text-align:center;text-decoration:none;text-decoration-line:none;text-decoration-style:solid;text-decoration-color:#000000;letter-spacing:normal;word-spacing:normal;text-transform:none;writing-mode:lr-tb;direction:ltr;text-orientation:mixed;dominant-baseline:auto;baseline-shift:baseline;text-anchor:middle;white-space:normal;shape-padding:0;opacity:1;vector-effect:none;fill:#ffffff;fill-opacity:1;fill-rule:nonzero;stroke:#4d86d9;stroke-width:2;stroke-linecap:butt;stroke-linejoin:round;stroke-miterlimit:4;stroke-dasharray:none;stroke-dashoffset:0;stroke-opacity:1;paint-order:stroke fill markers"
     xml:space="preserve"><tspan
       y="49.393944"
       x="127.89322"
       id="tspan897"
       sodipodi:role="line">“You Don’t Know Jack”</tspan></text>
</svg>
